<svg width="119" height="169" viewBox="0 0 119 169" fill="none" xmlns="http://www.w3.org/2000/svg">
<path d="M100.039 5.87537C97.7317 7.5236 95.1658 8.7116 92.8334 10.3097C90.5218 11.8936 89.3932 14.1246 88.122 16.5763C86.9257 18.8834 87.0134 20.9495 87.0134 23.4741C87.0134 25.8751 88.541 27.2906 89.7232 29.2172C91.3561 31.8782 94.8702 35.9282 93.1106 39.2715C91.7307 41.8932 88.638 43.94 85.6276 42.7358" stroke="black" stroke-linecap="round" stroke-linejoin="round"/>
<path d="M68.7217 1.71814C67.0714 2.25878 65.4319 3.20546 64.0103 4.21245C62.5787 5.22649 60.9652 5.86268 59.5143 6.82994C57.7163 8.02864 56.1209 10.047 55.6343 12.1881C54.2903 18.1016 56.9621 23.6157 59.5759 28.7245C60.8813 31.2759 62.3541 33.6378 63.302 36.346C63.4982 36.9064 63.7607 38.7973 63.2866 39.2714C61.782 40.776 56.9828 40.8752 55.973 38.8557" stroke="black" stroke-linecap="round" stroke-linejoin="round"/>
<path d="M38.5128 1.99528C33.8691 1.13133 28.933 0.949318 24.5323 2.54957C23.3026 2.99677 21.5132 5.01649 21.0526 6.16787C20.6059 7.28466 19.7558 8.85017 18.974 9.75537C17.879 11.0233 17.49 12.6916 16.8954 14.2205C15.6167 17.5088 15.1543 21.6936 15.2326 25.214C15.2909 27.8382 19.1008 31.5639 20.991 32.9741C23.4589 34.8152 26.2023 36.8608 29.1514 37.8087C30.4298 38.2196 31.9075 38.0243 33.247 38.0243" stroke="black" stroke-linecap="round" stroke-linejoin="round"/>
<path d="M59.5759 66.8475C62.315 67.7429 64.9091 68.9546 67.6132 69.9577C71.0238 71.2229 74.6051 72.601 77.652 74.6076C81.7012 77.2741 84.465 81.3517 81.1933 85.9706C78.3829 89.9382 74.6094 94.3306 69.4916 95.3319C68.6382 95.4989 66.9049 95.6707 66.9049 95.6707C66.9049 95.6707 68.3658 96.3524 68.9989 96.8408C75.1137 101.558 77.8554 110.095 75.3732 117.411C74.2194 120.812 72.1342 123.846 69.9535 126.649C69.4851 127.252 66.7561 129.986 65.9503 128.374" stroke="#1E90FF" stroke-linecap="round" stroke-linejoin="round"/>
<path d="M3.03813 50.2187C4.5744 52.1164 5.53699 54.2121 6.76421 56.3159C8.06327 58.5429 9.48853 60.6758 10.7982 62.9058C13.9034 68.193 16.3578 73.6295 18.9894 79.1651C20.4439 82.2244 22.4376 85.5386 24.6555 88.1261C26.0906 89.8003 28.0872 90.9385 29.4902 92.622C32.0937 95.7463 33.2246 99.4491 35.1871 102.938C37.7431 107.482 39.4926 112.417 42.0541 116.949C43.6577 119.786 45.2403 122.706 46.6886 125.602C48.2658 128.757 49.7728 132.019 51.4771 135.087C52.4357 136.812 53.1139 138.679 54.0176 140.43C54.4723 141.311 55.0283 142.22 55.4187 143.124C55.6812 143.732 56.3483 144.425 56.4965 145.018C57.2722 148.121 58.6468 150.961 60.4228 153.625C62.0254 156.029 62.0878 158.721 62.9017 161.354C63.3031 162.653 63.7331 164.558 63.7331 165.927C63.7331 166.248 63.7084 168.303 64.2874 167.328C65.6296 165.068 67.9302 163.482 68.9989 161.077C70.4056 157.912 73.3297 155.766 74.9729 152.778C75.7953 151.283 76.6209 149.865 77.3749 148.328C78.2967 146.449 78.7165 144.4 79.592 142.508C80.3572 140.856 81.0484 139.223 82.0402 137.674C83.0956 136.024 83.5338 134.081 84.5345 132.392C86.3924 129.257 88.94 126.645 90.6163 123.385C91.2812 122.092 92.0784 121.014 92.5563 119.628C93.2152 117.718 93.5475 115.534 94.5579 113.747C95.5395 112.01 96.6915 110.273 97.4064 108.404C98.4532 105.666 99.4077 102.862 101.009 100.398C103.55 96.4885 105.423 92.088 107.769 88.0491C110.163 83.9253 110.826 79.3446 111.957 74.8231C113.162 70.0029 114.245 64.8822 115.005 59.9804C115.511 56.7221 116.1 53.4694 116.529 50.2033C116.773 48.3524 117.014 46.5307 117.777 44.8143C118.272 43.6994 116.917 44.1215 116.052 44.1215C114.02 44.1215 111.987 44.1215 109.955 44.1215C101.039 44.1215 92.2222 45.7844 83.2873 45.7844C76.9102 45.7844 70.6378 45.5322 64.2874 45.2147C59.2091 44.9608 54.1944 44.4794 49.106 44.3986C40.6489 44.2644 31.1572 42.2695 22.9926 45.0761C17.7004 46.8953 11.921 47.4472 6.36389 47.4472C5.48626 47.4472 4.60863 47.4472 3.731 47.4472C3.20397 47.4472 0.991164 46.8168 1.49843 47.3241C2.30673 48.1324 3.0194 49.655 4.14672 50.2187" stroke="#1E90FF" stroke-linecap="round" stroke-linejoin="round"/>
</svg>
